<?xml version="1.0" encoding="UTF-8" standalone="no"?>
<svg
   xmlns:dc="http://purl.org/dc/elements/1.1/"
   xmlns:cc="http://creativecommons.org/ns#"
   xmlns:rdf="http://www.w3.org/1999/02/22-rdf-syntax-ns#"
   xmlns:svg="http://www.w3.org/2000/svg"
   xmlns="http://www.w3.org/2000/svg"
   xmlns:xlink="http://www.w3.org/1999/xlink"
   xmlns:sodipodi="http://sodipodi.sourceforge.net/DTD/sodipodi-0.dtd"
   xmlns:inkscape="http://www.inkscape.org/namespaces/inkscape"
   viewBox="0 0 515.33006 515.33006"
   version="1.1"
   width="515.33008pt"
   height="515.33008pt"
   id="svg13"
   sodipodi:docname="logo.svg"
   inkscape:version="0.92.4 (5da689c313, 2019-01-14)"
   inkscape:export-filename="C:\Users\Hinrich\PycharmProjects\akadressen\logo\logo.png"
   inkscape:export-xdpi="143.07001"
   inkscape:export-ydpi="143.07001">
  <metadata
     id="metadata17">
    <rdf:RDF>
      <cc:Work
         rdf:about="">
        <dc:format>image/svg+xml</dc:format>
        <dc:type
           rdf:resource="http://purl.org/dc/dcmitype/StillImage" />
        <dc:title />
      </cc:Work>
    </rdf:RDF>
  </metadata>
  <sodipodi:namedview
     pagecolor="#ffffff"
     bordercolor="#666666"
     borderopacity="1"
     objecttolerance="10"
     gridtolerance="10"
     guidetolerance="10"
     inkscape:pageopacity="0"
     inkscape:pageshadow="2"
     inkscape:window-width="1822"
     inkscape:window-height="1051"
     id="namedview15"
     showgrid="false"
     fit-margin-top="0"
     fit-margin-left="0"
     fit-margin-right="0"
     fit-margin-bottom="0"
     inkscape:zoom="0.88305871"
     inkscape:cx="221.18302"
     inkscape:cy="288.65863"
     inkscape:window-x="1791"
     inkscape:window-y="-9"
     inkscape:window-maximized="1"
     inkscape:current-layer="Hintergrund" />
  <defs
     id="defs7">
    <radialGradient
       gradientTransform="matrix(0.59628533,-1.1925693,1.1925693,0.59628533,-129.12413,546.97867)"
       cy="283.465"
       gradientUnits="userSpaceOnUse"
       r="316.923"
       cx="283.465"
       fy="283.465"
       id="Grad0"
       fx="283.465">
      <stop
         stop-opacity="1"
         stop-color="#476990"
         offset="0%"
         id="stop2"
         style="stop-color:#54698e;stop-opacity:1" />
      <stop
         stop-opacity="1"
         stop-color="#001345"
         offset="80%"
         id="stop4"
         style="stop-color:#001a46;stop-opacity:1" />
    </radialGradient>
    <radialGradient
       inkscape:collect="always"
       xlink:href="#Grad0"
       id="radialGradient4528"
       cx="91.285599"
       cy="-275.05643"
       fx="91.285599"
       fy="-275.05643"
       r="257.66513"
       gradientUnits="userSpaceOnUse"
       gradientTransform="translate(192.17924,558.52127)" />
  </defs>
  <g
     inkscape:label="Hintergrund"
     id="Hintergrund"
     inkscape:groupmode="layer"
     transform="translate(-25.799804,-25.799804)">
    <rect
       style="opacity:1;fill:#ffec00;fill-opacity:1;stroke:none;stroke-width:1.41732287;stroke-linecap:round;stroke-linejoin:round;stroke-miterlimit:2;stroke-dasharray:none;stroke-dashoffset:0;stroke-opacity:1;paint-order:markers stroke fill"
       id="rect967"
       width="40.979713"
       height="152.24071"
       x="340.68542"
       y="320.09418" />
    <rect
       style="opacity:1;fill:url(#radialGradient4528);fill-opacity:1;stroke:none;stroke-width:5.6289072;stroke-linecap:round;stroke-linejoin:miter;stroke-miterlimit:4;stroke-dasharray:none;stroke-dashoffset:0;stroke-opacity:1;paint-order:markers fill stroke"
       id="rect4520"
       width="515.33026"
       height="515.33026"
       x="25.799711"
       y="25.799711" />
    <path
       style="fill:#ffec00;fill-opacity:1;stroke-width:0.80000001"
       d="m 272.82937,522.53604 c -0.594,-0.0336 -2.6595,-0.14896 -4.59,-0.25576 -49.99098,-2.76632 -94.80374,-19.89592 -133.29001,-50.94976 -12.08885,-9.75424 -25.04097,-22.43624 -35.291196,-34.55504 -29.29271,-34.6328 -46.98677,-73.908 -53.07055,-117.79983 -0.81427,-5.87467 -1.33289,-11.04653 -1.92233,-19.17 -0.30523,-4.20655 -0.42105,-21.81156 -0.17903,-27.21165 2.08361,-46.49037 15.81995,-87.70865 41.47013,-124.43836 11.59203,-16.59918 26.739886,-33.37847 41.947586,-46.46535 34.83259,-29.974944 77.53974,-49.164674 123.11495,-55.319594 15.5594,-2.1013 32.03931,-2.55481 49.08045,-1.35064 32.33573,2.28493 62.72525,10.38636 89.86581,23.95705 19.50728,9.75392 36.13999,21.194435 53.52639,36.817234 3.70624,3.33031 13.97888,13.59595 17.55808,17.54621 24.38552,26.91311 41.26696,56.11839 51.17568,88.53509 5.86312,19.18156 9.128,38.41922 10.17112,59.9317 0.23632,4.87269 0.23568,19.28323 0,24.1366 -1.27992,26.24508 -5.94664,49.43041 -14.61712,72.6217 -4.90712,13.12536 -11.8508,27.19216 -19.4584,39.42 -9.98032,16.04152 -21.37024,30.25752 -35.84464,44.73856 -16.46104,16.46856 -32.88535,29.14856 -51.75583,39.95688 -28.32936,16.226 -59.18208,25.82968 -93.06002,28.96744 -7.8588,0.72792 -11.0283,0.85552 -22.41,0.90232 -6.237,0.0256 -11.826,0.0192 -12.42,-0.0152 z m 22.28667,-4.21512 c 21.39748,-0.9896 41.5073,-4.45496 60.0633,-10.35024 1.13856,-0.36176 2.44304,-0.77144 2.89888,-0.91056 1.2504,-0.38152 8.96736,-3.17 11.32112,-4.09088 23.28008,-9.10768 45.52544,-22.59632 65.51999,-39.72856 10.78712,-9.24288 21.54816,-20.12656 30.33936,-30.68504 20.64552,-24.79584 35.43552,-52.68648 44.07808,-83.12104 4.78504,-16.85059 7.52432,-33.17787 8.93032,-53.22895 0.31304,-4.46363 0.41712,-15.74059 0.19112,-20.70001 -2.66664,-58.51702 -22.5596,-107.49415 -60.75448,-149.58 -5.30256,-5.84271 -14.396,-14.74202 -20.62792,-20.18757 -38.11295,-33.303704 -82.12287,-52.015284 -132.20644,-56.209814 -7.85392,-0.65776 -10.02105,-0.73152 -21.51,-0.73207 -11.49813,-5.4e-4 -14.29305,0.0939 -21.69,0.73267 -37.79558,3.26404 -71.9042,14.7081 -102.98999,34.55503 -22.05823,14.083225 -43.24054,33.215994 -60.057396,54.246444 -28.57789,35.73827 -45.07529,77.26433 -49.34806,124.21531 -1.154,12.68068 -1.26095,23.38044 -0.3598,36.00001 2.60107,36.42535 12.09286,69.23967 28.58912,98.83623 12.7149,22.81232 30.070116,44.23656 50.831856,62.74984 32.12479,28.64568 68.83278,46.7636 110.20427,54.39344 10.25181,1.89064 22.48531,3.27456 33.39,3.7772 4.77323,0.22008 18.59157,0.23112 23.18667,0.0184 z M 76.701424,282.8271 c -1.73486,-0.64405 -4.74998,-2.74212 -6.25674,-4.35376 -1.20624,-1.29017 -3.51134,-5.45432 -4.02432,-7.26986 -0.30377,-1.07516 -0.33445,-1.88742 -0.32316,-8.55478 0.0156,-9.20755 0.0934,-9.83408 1.7126,-13.79837 0.93041,-2.27791 4.32116,-9.09566 5.97883,-12.02158 1.7433,-3.07706 5.12178,-8.51801 8.37357,-13.48539 7.74098,-11.825 11.39194,-20.27144 13.71484,-31.72906 0.64522,-3.1825 0.95595,-6.20938 1.18145,-11.50876 0.34893,-8.19991 0.91578,-13.40126 2.08918,-19.17 1.047876,-5.1516 1.949826,-7.86145 3.594686,-10.8 0.55416,-0.99 2.14309,-3.906 3.53095,-6.48 1.38787,-2.574 3.10915,-5.571 3.82508,-6.66 2.16912,-3.29948 6.11101,-8.03581 9.57214,-11.50132 6.63514,-6.64353 11.92261,-9.84661 18.654,-11.30036 1.6177,-0.34937 2.37668,-0.39817 6.16483,-0.39637 3.45771,0.002 4.56779,0.0632 5.56145,0.30859 2.50377,0.61824 4.3468,1.97204 5.94431,4.3664 0.45615,0.68368 1.06843,1.56706 1.36061,1.96306 1.09099,1.4786 1.50989,3.48169 1.71273,8.19 0.25771,5.98194 -0.82985,10.66208 -3.90671,16.81188 -1.78435,3.56644 -3.257,5.94045 -5.53827,8.92812 -1.09609,1.43549 -2.74017,3.61882 -3.65351,4.85184 -0.91334,1.233 -2.52069,3.096 -3.5719,4.14 -1.05121,1.04409 -2.50684,2.58676 -3.23473,3.42826 -0.7279,0.8415 -2.26993,2.5125 -3.42675,3.71331 -3.44938,3.58062 -6.40224,7.49287 -8.78996,11.64582 -1.50806,2.62298 -2.21796,4.22268 -3.2488,7.32087 -1.22704,3.6879 -1.70996,6.11387 -1.702,8.55 0.008,2.33104 0.35112,3.72978 1.63704,6.66601 0.83916,1.91613 1.42436,2.81105 2.06106,3.15179 1.68535,0.90198 6.25457,0.37048 10.33543,-1.20222 3.43606,-1.32421 6.51956,-3.17885 11.79,-7.09135 3.68823,-2.73794 5.50422,-4.30133 10.52607,-9.06192 6.50437,-6.16595 7.84567,-7.16796 13.62032,-10.1749 5.19276,-2.70395 7.42954,-3.33359 11.85361,-3.33666 5.44122,-0.004 9.78182,1.22406 13.99458,3.95867 2.66437,1.72951 3.84985,2.79191 5.04073,4.51736 0.60478,0.87628 1.6663,2.35814 2.35892,3.29304 2.7122,3.66088 4.28071,6.73482 5.10268,10.00018 0.35797,1.42203 0.40687,2.05993 0.40013,5.22 -0.007,3.24714 -0.0559,3.81655 -0.49993,5.80937 -1.14908,5.15717 -3.36678,9.96598 -7.32627,15.88609 -0.56481,0.84448 -1.65633,2.70748 -2.42561,4.14 -0.76927,1.43249 -2.06566,3.81954 -2.88086,5.30454 -3.84516,7.00449 -4.64698,9.14141 -5.59116,14.90096 -0.63516,3.87446 -1.12646,5.97296 -1.96873,8.40904 -0.25672,0.7425 -0.78644,2.55699 -1.17716,4.03222 -1.36449,5.15185 -2.58304,7.42783 -5.55082,10.36778 -3.87563,3.83928 -8.73434,6.40395 -13.80849,7.2888 -2.07395,0.36167 -9.47466,0.36466 -13.22541,0.006 -2.88875,-0.27675 -3.31829,-0.38861 -7.2726,-1.89391 -6.15249,-2.34211 -17.97506,-5.85578 -22.05691,-6.55533 -2.34744,-0.4023 -16.64217,-0.43254 -17.90309,-0.0378 -0.495,0.15493 -1.9935,0.94457 -3.33,1.75474 -1.3365,0.81016 -3.24,1.9602 -4.23,2.55564 -2.637306,1.58619 -7.885756,4.08117 -10.988806,5.22379 -4.79568,1.76591 -4.88447,1.78371 -9.26119,1.85652 -2.91868,0.0486 -4.02928,0.006 -4.51794,-0.17616 z m 84.887936,-38.3693 c 1.31667,-0.0839 2.70215,-0.48518 4.05866,-1.17563 3.0538,-1.55437 6.50515,-8.19157 6.98736,-13.4372 0.19937,-2.16886 -0.0126,-4.37474 -0.49541,-5.15597 -0.97341,-1.57502 -4.67375,-2.43084 -7.25005,-1.67682 -0.52831,0.15464 -2.13506,0.97762 -3.57056,1.82886 -1.4355,0.85124 -5.39758,2.93593 -8.80463,4.63265 -10.10817,5.03388 -13.35048,7.18144 -14.42933,9.55729 -0.69666,1.53424 -0.36866,1.96614 1.72396,2.27008 0.792,0.11503 2.574,0.48261 3.96,0.81685 7.11247,1.71519 8.94063,2.13228 10.26,2.34087 1.34071,0.21195 4.22297,0.21159 7.56,-0.002 z m 46.98,35.7426 c -1.86014,-0.55046 -7.43802,-2.84927 -8.54462,-3.52148 -1.42495,-0.86562 -2.76444,-2.36599 -3.25761,-3.64887 -0.52066,-1.35439 -0.56688,-3.95838 -0.0981,-5.52366 0.92384,-3.08443 3.33218,-6.53317 5.99908,-8.59068 0.8637,-0.66633 3.11178,-3.31821 7.0524,-8.31913 1.45472,-1.84614 4.09195,-5.85932 4.62688,-7.04094 0.50579,-1.11722 2.22204,-6.56422 2.85377,-9.05722 0.89496,-3.53172 0.99595,-4.79356 0.9971,-12.4575 0.002,-9.1757 -0.22076,-11.00253 -2.07863,-17.09528 -0.52829,-1.7325 -1.25571,-4.2435 -1.61648,-5.58 -0.36076,-1.3365 -0.93907,-3.1185 -1.28512,-3.96 -0.59678,-1.45117 -3.4932,-7.01227 -7.1813,-13.78798 -2.0927,-3.84467 -2.46883,-4.89104 -2.48463,-6.91202 -0.025,-3.20546 1.92226,-6.73594 4.27789,-7.75576 0.97315,-0.4213 2.42081,-0.54373 9.65943,-0.81687 4.115,-0.15528 6.5306,0.23053 10.51874,1.68001 5.5778,2.02723 8.63177,2.48387 16.47117,2.46279 7.81926,-0.021 11.06651,-0.42175 16.19298,-1.99827 4.10155,-1.26134 4.4986,-1.34305 6.57702,-1.35364 2.32731,-0.0118 3.72282,0.30404 5.58,1.26304 3.38591,1.74839 5.92587,6.00492 6.57103,11.01184 0.73956,5.7398 -1.82891,13.79628 -6.68859,20.97996 -3.25657,4.81399 -4.87225,8.28276 -7.41832,15.9269 -2.49537,7.4919 -2.887,10.87646 -2.32233,20.07 0.24891,4.05238 0.40252,4.71139 2.35493,10.10333 2.57834,7.12057 3.44588,8.56249 8.09417,13.45334 2.32351,2.44476 4.77298,5.62455 5.59898,7.26833 0.80178,1.59558 1.147,3.2285 1.1702,5.535 0.023,2.28827 -0.18196,2.85451 -1.28072,3.53763 -0.65995,0.41031 -0.79248,0.42221 -4.63935,0.41667 -4.07838,-0.006 -5.13011,-0.11463 -8.64,-0.89338 -3.44225,-0.76372 -5.5895,-0.87986 -16.47,-0.89074 -10.54782,-0.0106 -11.67141,0.0458 -16.29,0.81597 -3.30233,0.55075 -6.24276,1.31794 -11.00664,2.87179 -2.39065,0.77976 -5.15737,1.58297 -6.14827,1.78492 -2.32809,0.47442 -5.58218,0.4844 -7.1451,0.0219 z m 95.67001,-1.20112 c -4.40287,-0.63776 -10.09854,-2.95246 -11.16099,-4.53582 -0.24647,-0.36729 -1.10601,-1.55882 -1.91009,-2.64782 -3.1088,-4.21039 -5.81823,-8.79525 -9.41385,-15.93 -3.23212,-6.41342 -4.50875,-9.78211 -5.66187,-14.94 -1.34532,-6.01774 -1.79506,-10.37755 -1.68041,-16.29 0.0928,-4.78678 0.36775,-7.04944 1.3122,-10.8 0.55727,-2.21302 2.39174,-7.83029 3.35067,-10.26 2.87021,-7.27242 9.42003,-15.43547 14.29069,-17.8105 0.72455,-0.35332 2.02978,-0.81471 2.9005,-1.02532 1.51043,-0.36536 2.07923,-0.38529 12.38315,-0.43384 16.20685,-0.0763 18.39485,-0.27595 33.40453,-3.04716 9.4304,-1.74109 12.07992,-2.26068 13.93544,-2.73275 0.99,-0.25187 2.448,-0.49835 3.24,-0.54775 5.12488,-0.31962 9.3864,3.40239 11.00608,9.61268 0.39856,1.52795 0.46128,2.15093 0.46768,4.64464 0.0176,6.91318 -1.49216,12.71382 -5.57616,21.42 -3.1996,6.82086 -3.97768,9.95292 -4.13656,16.65 -0.15688,6.61671 0.0624,7.78059 2.54296,13.4857 1.72104,3.9585 2.27152,5.01762 4.06416,7.81944 1.63024,2.54794 3.65368,6.54254 4.07016,8.03486 0.3836,1.37498 0.55216,6.64591 0.25992,8.13129 -0.62816,3.19287 -2.966,5.66051 -7.83824,8.27341 l -1.8,0.9653 -2.6664,0.0618 c -3.23656,0.075 -6.92088,-0.21427 -8.82112,-0.69244 -0.77424,-0.19482 -2.43472,-0.80896 -3.69,-1.36478 -5.58328,-2.47207 -8.18,-2.91752 -13.52648,-2.32028 -4.06752,0.45438 -6.54336,1.14173 -10.086,2.80005 -1.42688,0.66796 -3.11704,1.28329 -4.62032,1.68208 -1.30368,0.34586 -2.87494,0.83385 -3.49167,1.08445 -1.88227,0.76484 -3.47249,1.00109 -6.59539,0.97985 -1.56342,-0.0106 -3.61209,-0.13081 -4.55259,-0.26703 z m 12.74582,-30.66212 c 1.91431,-0.6449 8.40103,-3.44938 8.73271,-3.77551 0.72744,-0.71535 0.74624,-5.2073 0.036,-8.6654 -0.50968,-2.48258 -1.58976,-5.46392 -2.96152,-8.17447 -1.576,-3.11427 -1.62544,-3.15817 -4.31288,-3.83178 -1.79366,-0.44958 -6.46344,-0.76818 -7.48847,-0.51092 -1.07181,0.26901 -3.95371,3.5257 -5.05481,5.71219 -1.05354,2.09206 -1.18687,3.04883 -1.12326,8.06053 0.0559,4.40627 0.0582,4.42784 0.54971,5.42882 0.77421,1.57646 2.74831,4.2255 3.32193,4.45766 0.27749,0.11232 1.08248,0.28431 1.78888,0.38222 0.70639,0.0979 1.84039,0.37528 2.52,0.6164 2.1285,0.75521 2.54741,0.78673 3.99146,0.30026 z m 72.94431,28.24186 c -5.64624,-0.54693 -9.32584,-1.93443 -11.90728,-4.48996 -2.23976,-2.21735 -3.1564,-4.28967 -3.69368,-8.3507 -0.37776,-2.85529 -0.25512,-6.7957 0.27432,-8.81428 1.12616,-4.29355 3.73728,-6.81922 8.22736,-7.95823 3.34368,-0.84819 8.34704,-0.90919 14.01912,-0.17093 8.67648,1.12932 14.5836,2.35918 21.06,4.38468 7.36887,2.30462 14.20687,3.57571 21.49543,3.99573 3.88712,0.22401 10.7104,-0.0184 11.80704,-0.41947 1.81896,-0.66523 6.99864,-3.48675 7.96576,-4.33917 0.63184,-0.55695 2.64712,-3.64935 3.3568,-5.15105 0.89696,-1.89801 1.25408,-3.79308 1.13624,-6.03 -0.10824,-2.05518 -0.48704,-3.2507 -1.5524,-4.89897 -1.17032,-1.81078 -0.7328,-1.73245 -10.54888,-1.88873 -8.70984,-0.13868 -12.36008,-0.0207 -15.84,0.5117 -2.86704,0.4387 -9.23264,1.89432 -19.16999,4.38365 -8.7844,2.20049 -10.69224,2.53745 -16.74,2.95646 -9.74408,0.67511 -11.35504,0.59346 -17.19712,-0.87158 -5.5032,-1.38004 -7.29472,-2.31727 -8.28032,-4.33171 -1.00584,-2.05579 -0.80328,-4.674 0.73224,-9.46563 1.25208,-3.90716 1.53472,-5.52697 1.64648,-9.43519 0.0752,-2.63946 0.0296,-3.91296 -0.20168,-5.58 -0.38976,-2.81103 -0.56024,-11.42603 -0.30448,-15.39 0.23168,-3.59046 0.65864,-5.47266 1.73536,-7.65 1.46728,-2.96706 3.44744,-4.84466 7.0876,-6.72079 3.43224,-1.76894 6.70288,-2.76159 11.18192,-3.39377 3.38784,-0.47816 15.33584,-0.45766 20.7,0.0355 2.78648,0.25618 5.25599,0.35345 8.81999,0.34741 4.4052,-0.007 5.15192,-0.052 6.78392,-0.40452 3.89704,-0.84176 7.02824,-2.29062 9.83896,-4.5526 0.8544,-0.68758 2.78952,-2.59315 4.30032,-4.23459 3.06416,-3.32923 4.97608,-4.96986 6.87152,-5.89664 2.8964,-1.4162 5.04656,-1.8195 8.9672,-1.68201 3.17096,0.1112 5.07112,0.52502 6.5632,1.42935 1.14512,0.69398 4.12616,3.31313 6.81808,5.99038 1.83224,1.82224 2.132,2.22205 3.71264,4.95228 3.61112,6.23721 4.31328,8.28483 4.32104,12.6 0.0152,8.53278 -3.52064,13.73302 -11.33912,16.67616 -4.02464,1.515 -10.44136,1.90279 -15.87776,0.95956 -3.03752,-0.52702 -10.23272,-2.36852 -11.79,-3.01746 -0.69296,-0.28879 -2.36704,-1.02076 -3.72016,-1.62659 -4.0612,-1.81836 -6.82688,-2.3606 -12.74984,-2.49974 -10.73407,-0.25216 -17.32151,2.19317 -17.32151,6.43001 0,2.79097 3.11864,4.88546 8.95152,6.01183 3.75855,0.7258 3.84991,0.72795 28.61999,0.67194 16.60408,-0.0375 24.35368,0.006 25.29,0.14207 1.74048,0.25296 3.3556,1.04418 4.4956,2.2023 1.086,1.10324 2.31992,3.53995 3.53968,6.98992 1.912,5.40817 7.37304,14.99324 11.38336,19.98 1.84824,2.2982 6.04128,7.04495 8.81904,9.9837 3.52888,3.73333 4.716,5.76166 4.84496,8.27813 0.12616,2.46089 -0.7876,4.16673 -3.91744,7.31357 -3.6868,3.70676 -7.59656,6.34524 -11.98704,8.08932 -6.26552,2.48892 -15.2856,3.93876 -21.35248,3.43204 -3.23864,-0.27049 -5.09848,-0.72139 -10.83976,-2.62793 -6.83536,-2.26989 -9.86224,-2.91271 -15.77136,-3.34937 -3.62704,-0.268 -9.28184,-0.10374 -12.33608,0.35836 -3.23496,0.48946 -4.99632,0.92011 -10.48959,2.5647 -7.20856,2.15809 -10.02184,2.80852 -14.27016,3.29929 -2.7656,0.31948 -13.7664,0.50425 -16.16856,0.27156 z m -82.66754,-98.1806 c -0.86205,-0.12529 -2.44155,-0.43411 -3.51,-0.68627 -1.06842,-0.25216 -2.65125,-0.58738 -3.51739,-0.74494 -2.83113,-0.515 -4.87617,-1.55651 -6.66891,-3.39636 -1.79077,-1.83781 -4.08057,-6.07523 -5.70918,-10.56521 -0.52069,-1.4355 -1.21236,-3.14143 -1.53703,-3.79095 -1.66189,-3.3247 -4.88644,-7.10235 -7.01008,-8.21253 -1.90629,-0.99654 -2.95936,-1.21949 -5.77775,-1.22318 -2.85093,-0.004 -3.37356,0.14778 -3.65425,1.05953 -0.0943,0.30643 -0.26676,2.62263 -0.38317,5.14713 -0.12735,2.76209 -0.31469,4.9693 -0.47043,5.54244 -0.3641,1.34006 -1.24448,2.24266 -3.01836,3.09459 -2.74838,1.31995 -2.99925,1.35297 -10.27604,1.35297 -7.46929,0 -7.32904,0.0238 -10.97721,-1.86662 -1.91561,-0.99266 -1.96895,-1.03729 -2.60923,-2.18338 -2.88293,-5.16035 -3.51606,-10.00892 -1.95073,-14.93903 0.29879,-0.94103 1.49906,-3.69547 2.6673,-6.12097 1.29603,-2.69083 2.72232,-6.02391 3.65871,-8.55 3.57097,-9.6334 3.85632,-11.81646 2.7484,-21.0256 -0.73692,-6.1254 -1.0746,-7.90783 -2.00143,-10.5644 -1.45408,-4.167759 -2.87255,-7.117409 -5.62133,-11.689229 -3.57684,-5.949065 -4.52216,-9.181655 -4.55897,-15.589655 -0.024,-4.17514 0.47398,-5.87696 2.50238,-8.55196 2.6375,-3.47824 8.96641,-8.06622 14.92353,-10.81842 1.74006,-0.80391 10.30893,-3.02964 13.09858,-3.40231 4.40246,-0.58812 11.2786,0.61655 14.06104,2.46342 1.95646,1.29862 3.09455,3.13537 4.02866,6.50183 1.02947,3.71019 1.29391,5.80611 1.39336,11.04336 0.10787,5.68174 0.0561,6.03157 -1.69017,11.41296 -2.74994,8.474595 -5.84705,19.239794 -6.99098,24.300004 -0.66548,2.94373 -0.85502,5.32398 -0.7819,9.81916 0.0703,4.32386 0.15462,4.75479 0.96991,4.95942 0.66971,0.16808 2.65666,-0.39114 4.52215,-1.27276 3.82126,-1.80587 6.01208,-3.9406 9.51947,-9.27582 2.19613,-3.34059 2.64081,-4.20677 4.75551,-9.26294 2.71626,-6.494449 4.13496,-9.046989 6.55333,-11.790679 3.17446,-3.60145 7.91673,-6.738345 13.62479,-9.012415 4.11376,-1.63893 7.956,-2.17913 10.87712,-1.52926 2.64976,0.58952 6.36016,2.84947 8.06456,4.91194 1.74208,2.108255 2.18664,3.776905 2.04944,7.693355 -0.1268,3.62007 -0.6184,6.51778 -2.25976,13.319999 -0.6928,2.871 -1.3964,5.9085 -1.56368,6.75 -0.34768,1.74958 -0.9668,3.5674 -1.7472,5.13 -1.21032,2.42329 -4.00616,6.27356 -5.83656,8.03764 -1.5924,1.53472 -4.66504,3.25248 -10.46421,5.84993 -1.45469,0.65155 -3.45488,1.59242 -4.44488,2.09082 -0.99,0.4984 -3.2175,1.5263 -4.95,2.28423 -3.42023,1.49625 -5.39085,2.56789 -6.19153,3.367 l -0.51138,0.51038 0.0808,2.34 c 0.0657,1.90233 0.15489,2.50648 0.47686,3.2301 0.58449,1.31359 1.12897,1.93716 2.20861,2.52936 l 0.96664,0.53024 5.22,0.14134 c 4.71435,0.12765 5.55015,0.10437 8.62821,-0.24028 4.59664,-0.51468 6.08304,-0.43758 7.86328,0.40784 2.19336,1.04163 4.59432,3.40538 5.59856,5.51177 l 0.53888,1.13036 -0.0248,4.26964 c -0.0272,4.62273 -0.19128,6.19885 -0.81896,7.86963 -0.73752,1.96285 -2.64496,5.56166 -3.55632,6.70955 -2.16464,2.72663 -5.5844,4.24233 -11.2627,4.99192 -2.4281,0.32053 -7.05212,0.32118 -9.2532,0.002 z m 51.06738,-3.08478 c -3.34968,-0.26654 -9.70032,-1.19006 -12.31144,-1.79037 -4.43184,-1.01889 -7.57512,-5.44162 -8.49624,-11.9547 -0.27392,-1.93656 -0.1232,-6.64748 0.38016,-11.88293 0.8564,-8.90803 0.89248,-9.78016 0.89864,-21.69 0.008,-12.18522 0.0752,-13.49332 0.89432,-16.94454 1.17456,-4.94992 3.56752,-10.43327 6.03784,-13.835459 0.64696,-0.891 1.42544,-2.04946 1.73008,-2.57437 0.70808,-1.22016 1.44744,-1.93076 3.40096,-3.26881 2.69112,-1.84316 5.52504,-3.101 8.09568,-3.59333 1.1264,-0.21571 9.41376,-0.97479 13.86,-1.2695 8.35336,-0.55367 8.85368,-0.63889 12.15,-2.069335 2.42304,-1.05147 5.22208,-2.01023 6.59608,-2.25939 2.57672,-0.46724 8.34424,0.76416 11.94544,2.55039 2.29848,1.140085 4.90064,4.066735 5.85016,6.579685 0.746,1.97432 1.2248,4.29246 1.70304,8.24482 2.0948,17.314059 5.90416,26.675359 13.73463,33.752179 1.7568,1.58779 3.42936,2.75197 8.73912,6.08312 6.18408,3.87961 7.73856,5.2892 9.34248,8.4712 l 0.75936,1.50664 0.056,4.79336 c 0.0448,3.83502 0,5.08124 -0.2312,6.23334 -0.8208,4.12127 -3.50352,8.00994 -6.56464,9.51552 -2.05784,1.01214 -2.96104,1.19094 -7.02,1.38974 -6.42392,0.31464 -8.10183,0.0548 -12.91727,-2.00038 -3.9356,-1.67964 -5.6668,-2.68399 -6.43272,-3.73184 -0.91808,-1.25604 -1.3844,-1.39572 -4.59,-1.375 -3.42216,0.0221 -4.5732,0.29481 -9.81,2.32403 -6.32104,2.44939 -10.91648,3.91051 -19.44,6.181 -4.93584,1.3148 -8.05304,2.0561 -9.99,2.37568 -1.22616,0.2023 -6.8236,0.36231 -8.37,0.23925 z m 16.25264,-19.7909 c 3.09976,-0.63206 6.1576,-2.32726 8.92744,-4.94911 1.5992,-1.51378 1.96384,-2.08227 2.27936,-3.55343 0.302,-1.4082 -0.0312,-1.9377 -1.8604,-2.9589 -0.81344,-0.45407 -1.71216,-1.07042 -1.9972,-1.36966 -1.19944,-1.25945 -5.21104,-7.26614 -6.41528,-9.60592 -0.69912,-1.35846 -1.44792,-2.5937 -1.66392,-2.745 -0.5224,-0.36591 -3.66656,-0.38271 -4.52464,-0.0242 -0.8348,0.34878 -1.3504,1.09329 -2.98304,4.30721 -1.56536,3.08141 -2.38008,5.38129 -2.80064,7.90644 -0.36192,2.17261 -0.67984,10.25146 -0.43728,11.11145 0.27912,0.98957 0.79944,1.50462 1.92632,1.90672 1.01944,0.36379 7.72776,0.34578 9.54928,-0.0256 z m -203.03407,16.30044 c -3.21126,-0.30711 -5.40672,-1.20994 -8.96771,-3.68776 -2.78759,-1.93968 -3.80518,-2.95876 -4.31346,-4.31978 -0.38306,-1.0257 -0.39893,-1.27002 -0.31582,-4.86 0.0998,-4.30946 0.39833,-6.2595 1.57473,-10.28531 2.24609,-7.68647 3.44419,-12.56731 4.12507,-16.80469 0.29999,-1.86697 0.36981,-3.27651 0.41009,-8.28 0.0526,-6.52731 -0.0417,-7.52902 -1.03597,-11.01561 -1.07868,-3.78243 -1.3735,-7.01228 -0.99901,-10.94439 0.66558,-6.988559 2.67341,-11.754209 7.17932,-17.040354 2.27949,-2.67422 4.67707,-4.17405 9.39421,-5.87669 4.52559,-1.6335 7.49103,-2.3723 13.49099,-3.36114 11.52123,-1.8988 16.76134,-3.59811 21.42901,-6.94922 3.62916,-2.60552 5.21723,-3.27096 8.19,-3.43181 4.50543,-0.24378 7.49082,1.40948 9.47877,5.24921 1.11367,2.15106 1.41124,3.23883 1.41124,5.15884 0,1.38644 -0.10251,1.90317 -0.82375,4.15233 -1.85328,5.77933 -2.92626,11.602205 -3.79019,20.568834 -0.41366,4.29322 -0.41422,12.82807 -0.002,18.81 0.70879,10.26722 1.22011,14.35416 3.17325,25.36356 0.53374,3.00862 0.84188,5.53175 1.25432,10.27083 0.5712,6.56354 0.52839,6.91818 -0.99715,8.26101 -2.00953,1.76886 -4.17429,2.43073 -7.90522,2.41698 -3.1595,-0.0117 -5.34171,-0.35143 -9.00001,-1.40132 -3.56924,-1.02432 -5.24574,-1.24651 -8.37,-1.10928 -4.66567,0.20494 -6.2636,0.65151 -11.7,3.26975 -10.48079,5.04768 -16.13643,6.49201 -22.89145,5.84601 z m 19.93497,-32.75272 c 3.6188,-0.65364 4.61467,-1.15445 5.58372,-2.808 0.63353,-1.08104 0.71587,-2.33588 0.35343,-5.38682 -0.32632,-2.74706 -1.97766,-11.35532 -2.35292,-12.2656 -0.18444,-0.44739 -0.44508,-0.64488 -1.24721,-0.945 -2.27855,-0.85251 -4.4145,-0.24039 -6.49054,1.86006 -0.82713,0.83685 -1.44642,1.76676 -2.64499,3.97162 -0.86075,1.58341 -1.78901,3.52692 -2.06281,4.31892 -0.45857,1.32647 -0.49838,1.65997 -0.50501,4.23 -0.009,3.36729 0.21953,4.22155 1.49392,5.59217 1.64906,1.77357 3.80884,2.16661 7.87241,1.43265 z"
       id="path5624"
       inkscape:connector-curvature="0"
       sodipodi:nodetypes="ccsssssssssssssscssssssccccccssscsssssssssssssccccssssssssssssssccsssssscsssscsssssscsssscssssssssscsscsssscccssccssssssccccsssscscssssssssssssssssssscscsssscccccssssssssssssccsccscsscsccscsssccccccsssscccsccccssssssscsccscsssssccssssscsccsscsccsscssssscscsscsssssssscccsssssscsscssssssssssssssssssssssssssscscccssssscscccssscccczscccscsccscccsssssccsccscsssscssscccsccccscscsccccssssssssssssssssscssscsssccssscsssscss"
       inkscape:export-xdpi="149.95689"
       inkscape:export-ydpi="149.95689" />
    <path
       style="opacity:1;fill:#ffec00;fill-opacity:1;stroke:none;stroke-width:2.00383401;stroke-linecap:round;stroke-linejoin:round;stroke-miterlimit:2;stroke-dasharray:none;stroke-dashoffset:0;stroke-opacity:1;paint-order:markers stroke fill"
       d="M 217.54297 369.34766 C 208.69482 369.34766 201.57227 376.47021 201.57227 385.31836 L 201.57227 413.57617 L 201.57227 507.61328 L 201.57227 574.48047 C 201.57227 586.12206 210.94434 595.49414 222.58594 595.49414 L 254.47266 595.49414 L 254.47266 577.65039 C 254.47266 576.10531 255.7147 574.86133 257.25977 574.86133 L 278.47656 574.86133 C 280.02163 574.86133 281.26562 576.10531 281.26562 577.65039 L 281.26562 595.49414 L 420.27148 595.49414 L 420.27148 577.65039 C 420.27148 576.10531 421.51547 574.86133 423.06055 574.86133 L 444.27734 574.86133 C 445.82241 574.86133 447.06641 576.10531 447.06641 577.65039 L 447.06641 595.49414 L 478.95312 595.49414 C 490.59474 595.49414 499.9668 586.12206 499.9668 574.48047 L 499.9668 413.57617 C 499.9668 401.93458 490.59474 392.5625 478.95312 392.5625 L 355.01562 392.5625 L 355.01562 385.31836 C 355.01562 376.47021 347.89307 369.34766 339.04492 369.34766 L 217.54297 369.34766 z M 280.17578 435.95508 A 27.095624 34.11438 0 0 1 307.27148 470.07031 A 27.095624 34.11438 0 0 1 280.17578 504.18555 A 27.095624 34.11438 0 0 1 253.08008 470.07031 A 27.095624 34.11438 0 0 1 280.17578 435.95508 z M 358.82031 457.72656 L 464.03711 457.72656 C 464.80126 457.72656 465.418 458.34329 465.41797 459.10742 L 465.41797 469.66797 C 465.41797 470.43213 464.80126 471.04688 464.03711 471.04688 L 358.82031 471.04688 C 358.05615 471.04687 357.44141 470.43213 357.44141 469.66797 L 357.44141 459.10742 C 357.44141 458.34329 358.05615 457.72656 358.82031 457.72656 z M 358.82031 487.74414 L 464.03711 487.74414 C 464.80126 487.74414 465.41797 488.35889 465.41797 489.12305 L 465.41797 499.68359 C 465.41797 500.44775 464.80126 501.06445 464.03711 501.06445 L 358.82031 501.06445 C 358.05615 501.06445 357.44141 500.44775 357.44141 499.68359 L 357.44141 489.12305 C 357.44141 488.35889 358.05615 487.74414 358.82031 487.74414 z M 280.17383 508.43164 A 44.078736 22.931659 0 0 1 324.23242 531.08008 L 236.12109 531.08008 A 44.078736 22.931659 0 0 1 280.17383 508.43164 z M 358.82031 517.75977 L 464.03711 517.75977 C 464.80126 517.75977 465.41797 518.37451 465.41797 519.13867 L 465.41797 529.70117 C 465.41797 530.46533 464.80126 531.08008 464.03711 531.08008 L 358.82031 531.08008 C 358.05615 531.08008 357.44141 530.46533 357.44141 529.70117 L 357.44141 519.13867 C 357.44141 518.37451 358.05615 517.75977 358.82031 517.75977 z "
       transform="matrix(0.75,0,0,0.75,25.799804,25.799804)"
       id="rect838" />
  </g>
</svg>
